<?xml version="1.0" encoding="utf-8"?>
<COLLADA xmlns="http://www.collada.org/2005/11/COLLADASchema" version="1.4.1" xmlns:xsi="http://www.w3.org/2001/XMLSchema-instance">
  <asset>
    <contributor>
      <author>Blender User</author>
      <authoring_tool>Blender 2.79.0 commit date:2018-03-22, commit time:14:10, hash:f4dc9f9d68b</authoring_tool>
    </contributor>
    <created>2018-09-03T21:57:39</created>
    <modified>2018-09-03T21:57:39</modified>
    <unit name="meter" meter="0.0254"/>
    <up_axis>Y_UP</up_axis>
  </asset>
  <library_images/>
  <library_effects>
    <effect id="lights-effect">
      <profile_COMMON>
        <technique sid="common">
          <phong>
            <emission>
              <color sid="emission">0 0 0 1</color>
            </emission>
            <ambient>
              <color sid="ambient">1 1 1 1</color>
            </ambient>
            <diffuse>
              <color sid="diffuse">0.9176471 0.4901961 0 1</color>
            </diffuse>
            <specular>
              <color sid="specular">0.5 0.5 0.5 1</color>
            </specular>
            <shininess>
              <float sid="shininess">50</float>
            </shininess>
            <index_of_refraction>
              <float sid="index_of_refraction">1</float>
            </index_of_refraction>
          </phong>
        </technique>
      </profile_COMMON>
    </effect>
    <effect id="rollers-effect">
      <profile_COMMON>
        <technique sid="common">
          <phong>
            <emission>
              <color sid="emission">0 0 0 1</color>
            </emission>
            <ambient>
              <color sid="ambient">1 1 1 1</color>
            </ambient>
            <diffuse>
              <color sid="diffuse">0.2862745 0.2745098 0.2666667 1</color>
            </diffuse>
            <specular>
              <color sid="specular">0.5 0.5 0.5 1</color>
            </specular>
            <shininess>
              <float sid="shininess">50</float>
            </shininess>
            <index_of_refraction>
              <float sid="index_of_refraction">1</float>
            </index_of_refraction>
          </phong>
        </technique>
      </profile_COMMON>
    </effect>
    <effect id="sides-effect">
      <profile_COMMON>
        <technique sid="common">
          <phong>
            <emission>
              <color sid="emission">0 0 0 1</color>
            </emission>
            <ambient>
              <color sid="ambient">1 1 1 1</color>
            </ambient>
            <diffuse>
              <color sid="diffuse">1 0.9568627 0.9294118 1</color>
            </diffuse>
            <specular>
              <color sid="specular">0.5 0.5 0.5 1</color>
            </specular>
            <shininess>
              <float sid="shininess">50</float>
            </shininess>
            <index_of_refraction>
              <float sid="index_of_refraction">1</float>
            </index_of_refraction>
          </phong>
        </technique>
      </profile_COMMON>
    </effect>
  </library_effects>
  <library_materials>
    <material id="lights-material" name="lights">
      <instance_effect url="#lights-effect"/>
    </material>
    <material id="rollers-material" name="rollers">
      <instance_effect url="#rollers-effect"/>
    </material>
    <material id="sides-material" name="sides">
      <instance_effect url="#sides-effect"/>
    </material>
  </library_materials>
  <library_geometries>
    <geometry id="ID5-mesh" name="ID5">
      <mesh>
        <source id="ID5-mesh-positions">
          <float_array id="ID5-mesh-positions-array" count="90">-185.0394 74.80315 -39.37008 -191.8585 78.74016 -55.90551 -185.0394 74.80315 -55.90551 -191.8585 78.74016 -39.37008 -191.8585 86.61417 -39.37008 -191.8585 78.74016 -55.90551 -191.8585 78.74016 -39.37008 -191.8585 86.61417 -55.90551 -185.0394 90.55118 -55.90551 -191.8585 78.74016 -55.90551 -191.8585 86.61417 -55.90551 -185.0394 74.80315 -55.90551 -178.2203 86.61417 -55.90551 -178.2203 78.74016 -55.90551 -178.2203 78.74016 -39.37008 -185.0394 74.80315 -55.90551 -178.2203 78.74016 -55.90551 -185.0394 74.80315 -39.37008 -191.8585 86.61417 -39.37008 -185.0394 90.55118 -55.90551 -191.8585 86.61417 -55.90551 -185.0394 90.55118 -39.37008 -185.0394 90.55118 -39.37008 -178.2203 86.61417 -55.90551 -185.0394 90.55118 -55.90551 -178.2203 86.61417 -39.37008 -178.2203 86.61417 -55.90551 -178.2203 78.74016 -39.37008 -178.2203 78.74016 -55.90551 -178.2203 86.61417 -39.37008</float_array>
          <technique_common>
            <accessor source="#ID5-mesh-positions-array" count="30" stride="3">
              <param name="X" type="float"/>
              <param name="Y" type="float"/>
              <param name="Z" type="float"/>
            </accessor>
          </technique_common>
        </source>
        <source id="ID5-mesh-normals">
          <float_array id="ID5-mesh-normals-array" count="33">-0.5000016 -0.8660245 0 -0.5 -0.8660254 0 -1 0 0 0 0 -1 0.4999983 -0.8660264 0 0.5 -0.8660254 0 -0.5 0.8660254 0 -0.5000016 0.8660245 0 0.5 0.8660254 0 0.4999983 0.8660264 0 1 0 0</float_array>
          <technique_common>
            <accessor source="#ID5-mesh-normals-array" count="11" stride="3">
              <param name="X" type="float"/>
              <param name="Y" type="float"/>
              <param name="Z" type="float"/>
            </accessor>
          </technique_common>
        </source>
        <vertices id="ID5-mesh-vertices">
          <input semantic="POSITION" source="#ID5-mesh-positions"/>
        </vertices>
        <triangles material="lights-material" count="16">
          <input semantic="VERTEX" source="#ID5-mesh-vertices" offset="0"/>
          <input semantic="NORMAL" source="#ID5-mesh-normals" offset="1"/>
          <p>0 0 1 0 2 0 1 1 0 1 3 1 4 2 5 2 6 2 5 2 4 2 7 2 8 3 9 3 10 3 9 3 8 3 11 3 11 3 8 3 12 3 11 3 12 3 13 3 14 4 15 4 16 4 15 5 14 5 17 5 18 6 19 6 20 6 19 7 18 7 21 7 22 8 23 8 24 8 23 9 22 9 25 9 26 10 27 10 28 10 27 10 26 10 29 10</p>
        </triangles>
      </mesh>
    </geometry>
    <geometry id="ID15-mesh" name="ID15">
      <mesh>
        <source id="ID15-mesh-positions">
          <float_array id="ID15-mesh-positions-array" count="90">-185.0394 -74.80315 -39.37008 -178.2203 -78.74016 -55.90551 -185.0394 -74.80315 -55.90551 -178.2203 -78.74016 -39.37008 -178.2203 -78.74016 -55.90551 -178.2203 -86.61417 -39.37008 -178.2203 -86.61417 -55.90551 -178.2203 -78.74016 -39.37008 -185.0394 -74.80315 -55.90551 -191.8585 -86.61417 -55.90551 -191.8585 -78.74016 -55.90551 -185.0394 -90.55118 -55.90551 -178.2203 -78.74016 -55.90551 -178.2203 -86.61417 -55.90551 -191.8585 -78.74016 -39.37008 -185.0394 -74.80315 -55.90551 -191.8585 -78.74016 -55.90551 -185.0394 -74.80315 -39.37008 -178.2203 -86.61417 -39.37008 -185.0394 -90.55118 -55.90551 -178.2203 -86.61417 -55.90551 -185.0394 -90.55118 -39.37008 -185.0394 -90.55118 -39.37008 -191.8585 -86.61417 -55.90551 -185.0394 -90.55118 -55.90551 -191.8585 -86.61417 -39.37008 -191.8585 -78.74016 -39.37008 -191.8585 -86.61417 -55.90551 -191.8585 -86.61417 -39.37008 -191.8585 -78.74016 -55.90551</float_array>
          <technique_common>
            <accessor source="#ID15-mesh-positions-array" count="30" stride="3">
              <param name="X" type="float"/>
              <param name="Y" type="float"/>
              <param name="Z" type="float"/>
            </accessor>
          </technique_common>
        </source>
        <source id="ID15-mesh-normals">
          <float_array id="ID15-mesh-normals-array" count="33">0.5 0.8660254 0 0.4999983 0.8660264 0 1 0 0 0 0 -1 -0.5 0.8660254 0 -0.5000016 0.8660245 0 0.4999983 -0.8660264 0 0.5 -0.8660254 0 -0.5000016 -0.8660245 0 -0.5 -0.8660254 0 -1 0 0</float_array>
          <technique_common>
            <accessor source="#ID15-mesh-normals-array" count="11" stride="3">
              <param name="X" type="float"/>
              <param name="Y" type="float"/>
              <param name="Z" type="float"/>
            </accessor>
          </technique_common>
        </source>
        <vertices id="ID15-mesh-vertices">
          <input semantic="POSITION" source="#ID15-mesh-positions"/>
        </vertices>
        <triangles material="lights-material" count="16">
          <input semantic="VERTEX" source="#ID15-mesh-vertices" offset="0"/>
          <input semantic="NORMAL" source="#ID15-mesh-normals" offset="1"/>
          <p>0 0 1 0 2 0 1 1 0 1 3 1 4 2 5 2 6 2 5 2 4 2 7 2 8 3 9 3 10 3 9 3 8 3 11 3 11 3 8 3 12 3 11 3 12 3 13 3 14 4 15 4 16 4 15 5 14 5 17 5 18 6 19 6 20 6 19 7 18 7 21 7 22 8 23 8 24 8 23 9 22 9 25 9 26 10 27 10 28 10 27 10 26 10 29 10</p>
        </triangles>
      </mesh>
    </geometry>
    <geometry id="ID23-mesh" name="ID23">
      <mesh>
        <source id="ID23-mesh-positions">
          <float_array id="ID23-mesh-positions-array" count="96">173.2283 -82.48031 -19.68504 -173.2283 -81.62256 -23.44309 173.2283 -81.62256 -23.44309 -173.2283 -82.48031 -19.68504 -173.2283 -79.2192 -26.45681 173.2283 -79.2192 -26.45681 173.2283 -81.62256 -15.92699 -173.2283 -81.62256 -15.92699 -173.2283 -75.74624 -28.1293 173.2283 -75.74624 -28.1293 173.2283 -79.2192 -12.91327 -173.2283 -79.2192 -12.91327 -173.2283 -73.8189 -28.1293 173.2283 -73.8189 -28.1293 -173.2283 -75.74624 -11.24078 173.2283 -75.74624 -11.24078 -173.2283 -71.89155 -28.1293 173.2283 -71.89155 -28.1293 -173.2283 -73.8189 -11.24078 173.2283 -73.8189 -11.24078 -173.2283 -68.41859 -26.45681 173.2283 -68.41859 -26.45681 -173.2283 -71.89155 -11.24078 173.2283 -71.89155 -11.24078 -173.2283 -66.01523 -23.44309 173.2283 -66.01523 -23.44309 -173.2283 -68.41859 -12.91327 173.2283 -68.41859 -12.91327 -173.2283 -65.15748 -19.68504 173.2283 -65.15748 -19.68504 173.2283 -66.01523 -15.92699 -173.2283 -66.01523 -15.92699</float_array>
          <technique_common>
            <accessor source="#ID23-mesh-positions-array" count="32" stride="3">
              <param name="X" type="float"/>
              <param name="Y" type="float"/>
              <param name="Z" type="float"/>
            </accessor>
          </technique_common>
        </source>
        <source id="ID23-mesh-normals">
          <float_array id="ID23-mesh-normals-array" count="48">0 -1 0 0 -0.9009695 -0.4338826 0 -0.6234773 -0.7818415 0 -0.9009695 0.4338826 0 -0.222514 -0.9749296 0 -0.6234773 0.7818415 0 0 -1 0 -0.222514 0.9749296 0 0.222514 -0.9749296 0 0 1 0 0.6234773 -0.7818415 0 0.222514 0.9749296 0 0.9009695 -0.4338826 0 0.6234773 0.7818415 0 1 0 0 0.9009695 0.4338826</float_array>
          <technique_common>
            <accessor source="#ID23-mesh-normals-array" count="16" stride="3">
              <param name="X" type="float"/>
              <param name="Y" type="float"/>
              <param name="Z" type="float"/>
            </accessor>
          </technique_common>
        </source>
        <vertices id="ID23-mesh-vertices">
          <input semantic="POSITION" source="#ID23-mesh-positions"/>
        </vertices>
        <triangles material="rollers-material" count="32">
          <input semantic="VERTEX" source="#ID23-mesh-vertices" offset="0"/>
          <input semantic="NORMAL" source="#ID23-mesh-normals" offset="1"/>
          <p>0 0 1 1 2 1 1 1 0 0 3 0 2 1 4 2 5 2 4 2 2 1 1 1 6 3 3 0 0 0 3 0 6 3 7 3 8 4 5 2 4 2 5 2 8 4 9 4 10 5 7 3 6 3 7 3 10 5 11 5 12 6 9 4 8 4 9 4 12 6 13 6 10 5 14 7 11 5 14 7 10 5 15 7 16 8 13 6 12 6 13 6 16 8 17 8 15 7 18 9 14 7 18 9 15 7 19 9 20 10 17 8 16 8 17 8 20 10 21 10 19 9 22 11 18 9 22 11 19 9 23 11 24 12 21 10 20 10 21 10 24 12 25 12 23 11 26 13 22 11 26 13 23 11 27 13 28 14 25 12 24 12 25 12 28 14 29 14 26 13 30 15 31 15 30 15 26 13 27 13 31 15 29 14 28 14 29 14 31 15 30 15</p>
        </triangles>
      </mesh>
    </geometry>
    <geometry id="ID33-mesh" name="ID33">
      <mesh>
        <source id="ID33-mesh-positions">
          <float_array id="ID33-mesh-positions-array" count="444">173.2283 -98.4252 0 173.2283 -81.62256 -15.92699 173.2283 -98.4252 -39.37008 173.2283 -79.2192 -12.91327 173.2283 -75.74624 -11.24078 173.2283 98.4252 0 173.2283 -82.48031 -19.68504 173.2283 -73.8189 -11.24078 173.2283 -71.89155 -11.24078 173.2283 -51.13995 -11.24078 173.2283 -68.41859 -12.91327 173.2283 -66.01523 -15.92699 173.2283 -54.6129 -12.91327 173.2283 -65.15748 -19.68504 173.2283 -57.01627 -15.92699 173.2283 -57.87402 -19.68504 173.2283 -49.2126 -11.24078 173.2283 -47.28525 -11.24078 173.2283 -26.53365 -11.24078 173.2283 -43.81229 -12.91327 173.2283 -41.40893 -15.92699 173.2283 -30.0066 -12.91327 173.2283 -40.55118 -19.68504 173.2283 -32.40997 -15.92699 173.2283 -33.26772 -19.68504 173.2283 -24.6063 -11.24078 173.2283 -22.67895 -11.24078 173.2283 -19.20599 -12.91327 173.2283 -1.927347 -11.24078 173.2283 -16.80263 -15.92699 173.2283 -5.400305 -12.91327 173.2283 -15.94488 -19.68504 173.2283 -7.803667 -15.92699 173.2283 -8.661417 -19.68504 173.2283 0 -11.24078 173.2283 1.927347 -11.24078 173.2283 5.400305 -12.91327 173.2283 22.67895 -11.24078 173.2283 7.803667 -15.92699 173.2283 19.20599 -12.91327 173.2283 8.661417 -19.68504 173.2283 16.80263 -15.92699 173.2283 15.94488 -19.68504 173.2283 24.6063 -11.24078 173.2283 26.53365 -11.24078 173.2283 30.0066 -12.91327 173.2283 47.28525 -11.24078 173.2283 32.40997 -15.92699 173.2283 43.81229 -12.91327 173.2283 33.26772 -19.68504 173.2283 41.40893 -15.92699 173.2283 40.55118 -19.68504 173.2283 49.2126 -11.24078 173.2283 51.13995 -11.24078 173.2283 54.6129 -12.91327 173.2283 57.01627 -15.92699 173.2283 71.89155 -11.24078 173.2283 68.41859 -12.91327 173.2283 57.87402 -19.68504 173.2283 66.01523 -15.92699 173.2283 65.15748 -19.68504 173.2283 73.8189 -11.24078 173.2283 75.74624 -11.24078 173.2283 79.2192 -12.91327 173.2283 81.62256 -15.92699 173.2283 82.48031 -19.68504 173.2283 -75.74624 -28.1293 173.2283 98.4252 -39.37008 173.2283 -79.2192 -26.45681 173.2283 -81.62256 -23.44309 173.2283 -73.8189 -28.1293 173.2283 -71.89155 -28.1293 173.2283 -51.13995 -28.1293 173.2283 -68.41859 -26.45681 173.2283 -66.01523 -23.44309 173.2283 -54.6129 -26.45681 173.2283 -57.01627 -23.44309 173.2283 -49.2126 -28.1293 173.2283 -47.28525 -28.1293 173.2283 -26.53365 -28.1293 173.2283 -43.81229 -26.45681 173.2283 -41.40893 -23.44309 173.2283 -30.0066 -26.45681 173.2283 -32.40997 -23.44309 173.2283 -24.6063 -28.1293 173.2283 -22.67895 -28.1293 173.2283 -19.20599 -26.45681 173.2283 -1.927347 -28.1293 173.2283 -16.80263 -23.44309 173.2283 -5.400305 -26.45681 173.2283 -7.803667 -23.44309 173.2283 0 -28.1293 173.2283 1.927347 -28.1293 173.2283 5.400305 -26.45681 173.2283 22.67895 -28.1293 173.2283 7.803667 -23.44309 173.2283 19.20599 -26.45681 173.2283 16.80263 -23.44309 173.2283 24.6063 -28.1293 173.2283 26.53365 -28.1293 173.2283 30.0066 -26.45681 173.2283 47.28525 -28.1293 173.2283 32.40997 -23.44309 173.2283 43.81229 -26.45681 173.2283 41.40893 -23.44309 173.2283 49.2126 -28.1293 173.2283 51.13995 -28.1293 173.2283 54.6129 -26.45681 173.2283 57.01627 -23.44309 173.2283 71.89155 -28.1293 173.2283 68.41859 -26.45681 173.2283 66.01523 -23.44309 173.2283 73.8189 -28.1293 173.2283 75.74624 -28.1293 173.2283 79.2192 -26.45681 173.2283 81.62256 -23.44309 173.2283 -98.4252 0 196.8504 98.4252 0 173.2283 98.4252 0 196.8504 -98.4252 0 173.2283 98.4252 0 196.8504 98.4252 -39.37008 173.2283 98.4252 -39.37008 196.8504 98.4252 0 173.2283 98.4252 -39.37008 178.2203 86.61417 -39.37008 173.2283 -98.4252 -39.37008 196.8504 98.4252 -39.37008 178.2203 78.74016 -39.37008 178.2203 -78.74016 -39.37008 185.0394 90.55118 -39.37008 191.8585 86.61417 -39.37008 191.8585 -86.61417 -39.37008 196.8504 -98.4252 -39.37008 178.2203 -86.61417 -39.37008 185.0394 -90.55118 -39.37008 185.0394 -74.80315 -39.37008 185.0394 74.80315 -39.37008 191.8585 -78.74016 -39.37008 191.8585 78.74016 -39.37008 196.8504 -98.4252 0 173.2283 -98.4252 -39.37008 196.8504 -98.4252 -39.37008 173.2283 -98.4252 0 196.8504 98.4252 -39.37008 196.8504 -98.4252 0 196.8504 -98.4252 -39.37008 196.8504 98.4252 0</float_array>
          <technique_common>
            <accessor source="#ID33-mesh-positions-array" count="148" stride="3">
              <param name="X" type="float"/>
              <param name="Y" type="float"/>
              <param name="Z" type="float"/>
            </accessor>
          </technique_common>
        </source>
        <source id="ID33-mesh-normals">
          <float_array id="ID33-mesh-normals-array" count="123">-1 0 0 -1 5.67283e-6 0 -1 -2.17623e-6 0 -1 7.09401e-6 0 -1 -2.17623e-6 0 -1 7.09403e-6 0 -1 -2.17623e-6 0 -1 7.09405e-6 0 -1 7.09403e-6 0 -1 -5.49144e-6 0 -1 6.35729e-6 0 -1 -5.05292e-7 0 -1 4.62613e-6 0 -1 -6.09042e-7 0 -1 1.80735e-6 0 -1 -7.66409e-7 0 -1 1.12306e-6 0 -1 -1.03342e-6 0 -1 2.24568e-6 0 -1 -5.69524e-6 0 -1 -1.58597e-6 0 -1 4.11858e-6 0 -1 -4.76797e-6 0 0 0 1 0 1 0 -9.9378e-7 0 -1 0 0 -1 3.26084e-5 0 -1 -1.24222e-6 0 -1 8.48435e-6 0 -1 -6.09171e-7 0 -1 -1.12932e-6 0 -1 9.93798e-7 0 -1 -3.10556e-6 0 -1 8.4845e-6 0 -1 -6.09171e-7 0 -1 0 0 -1 0 0 -1 0 0 -1 1 0 0 0 -1 0</float_array>
          <technique_common>
            <accessor source="#ID33-mesh-normals-array" count="41" stride="3">
              <param name="X" type="float"/>
              <param name="Y" type="float"/>
              <param name="Z" type="float"/>
            </accessor>
          </technique_common>
        </source>
        <vertices id="ID33-mesh-vertices">
          <input semantic="POSITION" source="#ID33-mesh-positions"/>
        </vertices>
        <triangles material="sides-material" count="154">
          <input semantic="VERTEX" source="#ID33-mesh-vertices" offset="0"/>
          <input semantic="NORMAL" source="#ID33-mesh-normals" offset="1"/>
          <p>0 0 1 0 2 0 1 0 0 0 3 0 3 0 0 0 4 0 4 0 0 0 5 0 2 1 1 1 6 1 4 0 5 0 7 0 7 0 5 0 8 0 8 0 5 0 9 0 8 0 9 0 10 0 10 2 9 2 11 2 11 3 9 3 12 3 11 0 12 0 13 0 13 0 12 0 14 0 13 0 14 0 15 0 9 0 5 0 16 0 16 0 5 0 17 0 17 0 5 0 18 0 17 0 18 0 19 0 19 4 18 4 20 4 20 3 18 3 21 3 20 0 21 0 22 0 22 0 21 0 23 0 22 0 23 0 24 0 18 0 5 0 25 0 25 0 5 0 26 0 26 0 5 0 27 0 27 0 5 0 28 0 27 4 28 4 29 4 29 5 28 5 30 5 29 0 30 0 31 0 31 0 30 0 32 0 31 0 32 0 33 0 28 0 5 0 34 0 34 0 5 0 35 0 35 0 5 0 36 0 36 0 5 0 37 0 36 6 37 6 38 6 38 7 37 7 39 7 38 0 39 0 40 0 40 0 39 0 41 0 40 0 41 0 42 0 37 0 5 0 43 0 43 0 5 0 44 0 44 0 5 0 45 0 45 0 5 0 46 0 45 6 46 6 47 6 47 8 46 8 48 8 47 0 48 0 49 0 49 0 48 0 50 0 49 0 50 0 51 0 46 0 5 0 52 0 52 0 5 0 53 0 53 0 5 0 54 0 54 0 5 0 55 0 55 0 5 0 56 0 55 8 56 8 57 8 55 0 57 0 58 0 58 0 57 0 59 0 58 0 59 0 60 0 56 0 5 0 61 0 61 0 5 0 62 0 62 0 5 0 63 0 63 0 5 0 64 0 64 0 5 0 65 0 2 0 66 0 67 0 66 0 2 0 68 0 68 9 2 9 69 9 69 10 2 10 6 10 67 0 66 0 70 0 67 0 70 0 71 0 67 0 71 0 72 0 72 0 71 0 73 0 72 0 73 0 74 0 72 0 74 0 75 0 75 0 74 0 13 0 75 0 13 0 76 0 76 0 13 0 15 0 67 0 72 0 77 0 67 0 77 0 78 0 67 0 78 0 79 0 79 0 78 0 80 0 79 0 80 0 81 0 79 0 81 0 82 0 82 0 81 0 22 0 82 0 22 0 83 0 83 0 22 0 24 0 67 0 79 0 84 0 67 0 84 0 85 0 67 11 85 11 86 11 67 12 86 12 87 12 87 0 86 0 88 0 87 0 88 0 89 0 89 0 88 0 31 0 89 0 31 0 90 0 90 0 31 0 33 0 67 0 87 0 91 0 67 0 91 0 92 0 67 13 92 13 93 13 67 14 93 14 94 14 94 0 93 0 95 0 94 0 95 0 96 0 96 0 95 0 40 0 96 0 40 0 97 0 97 0 40 0 42 0 67 0 94 0 98 0 67 0 98 0 99 0 67 15 99 15 100 15 67 16 100 16 101 16 101 0 100 0 102 0 101 0 102 0 103 0 103 0 102 0 49 0 103 0 49 0 104 0 104 0 49 0 51 0 67 0 101 0 105 0 67 0 105 0 106 0 67 17 106 17 107 17 67 18 107 18 108 18 67 19 108 19 109 19 109 0 108 0 110 0 110 0 108 0 58 0 110 0 58 0 111 0 111 0 58 0 60 0 67 0 109 0 112 0 67 0 112 0 113 0 67 20 113 20 114 20 67 21 114 21 115 21 67 22 115 22 65 22 67 0 65 0 5 0 116 23 117 23 118 23 117 23 116 23 119 23 120 24 121 24 122 24 121 24 120 24 123 24 124 25 125 25 126 25 125 26 124 26 127 26 126 27 125 27 128 27 126 28 128 28 129 28 125 29 127 29 130 29 130 30 127 30 131 30 131 31 127 31 132 31 132 32 127 32 133 32 126 26 134 26 133 26 134 33 126 33 129 33 133 34 134 34 135 34 133 35 135 35 132 35 128 36 136 36 129 36 136 37 128 37 137 37 136 26 137 26 138 26 138 38 137 38 139 38 138 39 139 39 132 39 132 0 139 0 131 0 140 40 141 40 142 40 141 40 140 40 143 40 144 39 145 39 146 39 145 39 144 39 147 39</p>
        </triangles>
      </mesh>
    </geometry>
    <geometry id="ID43-mesh" name="ID43">
      <mesh>
        <source id="ID43-mesh-positions">
          <float_array id="ID43-mesh-positions-array" count="108">173.2283 -30.0066 -12.91327 -173.2283 -32.40997 -15.92699 173.2283 -32.40997 -15.92699 -173.2283 -30.0066 -12.91327 -173.2283 -33.26772 -19.68504 173.2283 -33.26772 -19.68504 -173.2283 -26.53365 -11.24078 173.2283 -26.53365 -11.24078 -173.2283 -32.40997 -23.44309 173.2283 -32.40997 -23.44309 -173.2283 -24.6063 -11.24078 173.2283 -24.6063 -11.24078 -173.2283 -30.0066 -26.45681 173.2283 -30.0066 -26.45681 173.2283 -24.6063 -11.24078 -173.2283 -22.67895 -11.24078 -173.2283 -24.6063 -11.24078 173.2283 -22.67895 -11.24078 -173.2283 -26.53365 -28.1293 173.2283 -26.53365 -28.1293 -173.2283 -19.20599 -12.91327 173.2283 -19.20599 -12.91327 -173.2283 -24.6063 -28.1293 173.2283 -24.6063 -28.1293 173.2283 -16.80263 -15.92699 -173.2283 -16.80263 -15.92699 -173.2283 -22.67895 -28.1293 173.2283 -24.6063 -28.1293 -173.2283 -24.6063 -28.1293 173.2283 -22.67895 -28.1293 173.2283 -15.94488 -19.68504 -173.2283 -15.94488 -19.68504 -173.2283 -19.20599 -26.45681 173.2283 -19.20599 -26.45681 173.2283 -16.80263 -23.44309 -173.2283 -16.80263 -23.44309</float_array>
          <technique_common>
            <accessor source="#ID43-mesh-positions-array" count="36" stride="3">
              <param name="X" type="float"/>
              <param name="Y" type="float"/>
              <param name="Z" type="float"/>
            </accessor>
          </technique_common>
        </source>
        <source id="ID43-mesh-normals">
          <float_array id="ID43-mesh-normals-array" count="48">0 -0.6234773 0.7818415 0 -0.9009695 0.4338826 0 -1 0 0 -0.222514 0.9749296 0 -0.9009695 -0.4338826 0 0 1 0 -0.6234773 -0.7818415 0 0.222514 0.9749296 0 -0.222514 -0.9749296 0 0.6234773 0.7818415 0 0 -1 0 0.9009695 0.4338826 0 0.222514 -0.9749296 0 1 0 0 0.6234773 -0.7818415 0 0.9009695 -0.4338826</float_array>
          <technique_common>
            <accessor source="#ID43-mesh-normals-array" count="16" stride="3">
              <param name="X" type="float"/>
              <param name="Y" type="float"/>
              <param name="Z" type="float"/>
            </accessor>
          </technique_common>
        </source>
        <vertices id="ID43-mesh-vertices">
          <input semantic="POSITION" source="#ID43-mesh-positions"/>
        </vertices>
        <triangles material="rollers-material" count="32">
          <input semantic="VERTEX" source="#ID43-mesh-vertices" offset="0"/>
          <input semantic="NORMAL" source="#ID43-mesh-normals" offset="1"/>
          <p>0 0 1 1 2 1 1 1 0 0 3 0 2 1 4 2 5 2 4 2 2 1 1 1 0 0 6 3 3 0 6 3 0 0 7 3 5 2 8 4 9 4 8 4 5 2 4 2 7 3 10 5 6 3 10 5 7 3 11 5 9 4 12 6 13 6 12 6 9 4 8 4 14 5 15 7 16 5 15 7 14 5 17 7 18 8 13 6 12 6 13 6 18 8 19 8 17 7 20 9 15 7 20 9 17 7 21 9 22 10 19 8 18 8 19 8 22 10 23 10 20 9 24 11 25 11 24 11 20 9 21 9 26 12 27 10 28 10 27 10 26 12 29 12 25 11 30 13 31 13 30 13 25 11 24 11 32 14 29 12 26 12 29 12 32 14 33 14 31 13 34 15 35 15 34 15 31 13 30 13 35 15 33 14 32 14 33 14 35 15 34 15</p>
        </triangles>
      </mesh>
    </geometry>
    <geometry id="ID51-mesh" name="ID51">
      <mesh>
        <source id="ID51-mesh-positions">
          <float_array id="ID51-mesh-positions-array" count="108">-173.2283 -41.40893 -15.92699 173.2283 -40.55118 -19.68504 -173.2283 -40.55118 -19.68504 173.2283 -41.40893 -15.92699 -173.2283 -43.81229 -12.91327 173.2283 -43.81229 -12.91327 173.2283 -41.40893 -23.44309 -173.2283 -41.40893 -23.44309 173.2283 -47.28525 -11.24078 -173.2283 -47.28525 -11.24078 173.2283 -43.81229 -26.45681 -173.2283 -43.81229 -26.45681 173.2283 -49.2126 -11.24078 -173.2283 -49.2126 -11.24078 173.2283 -47.28525 -28.1293 -173.2283 -47.28525 -28.1293 173.2283 -51.13995 -11.24078 -173.2283 -49.2126 -11.24078 -173.2283 -51.13995 -11.24078 173.2283 -49.2126 -11.24078 173.2283 -49.2126 -28.1293 -173.2283 -49.2126 -28.1293 173.2283 -54.6129 -12.91327 -173.2283 -54.6129 -12.91327 -173.2283 -49.2126 -28.1293 173.2283 -51.13995 -28.1293 -173.2283 -51.13995 -28.1293 173.2283 -49.2126 -28.1293 -173.2283 -57.01627 -15.92699 173.2283 -57.01627 -15.92699 173.2283 -54.6129 -26.45681 -173.2283 -54.6129 -26.45681 -173.2283 -57.87402 -19.68504 173.2283 -57.87402 -19.68504 173.2283 -57.01627 -23.44309 -173.2283 -57.01627 -23.44309</float_array>
          <technique_common>
            <accessor source="#ID51-mesh-positions-array" count="36" stride="3">
              <param name="X" type="float"/>
              <param name="Y" type="float"/>
              <param name="Z" type="float"/>
            </accessor>
          </technique_common>
        </source>
        <source id="ID51-mesh-normals">
          <float_array id="ID51-mesh-normals-array" count="48">0 0.9009695 0.4338826 0 1 0 0 0.6234773 0.7818415 0 0.9009695 -0.4338826 0 0.222514 0.9749296 0 0.6234773 -0.7818415 0 0 1 0 0.222514 -0.9749296 0 -0.222514 0.9749296 0 0 -1 0 -0.6234773 0.7818415 0 -0.222514 -0.9749296 0 -0.9009695 0.4338826 0 -0.6234773 -0.7818415 0 -1 0 0 -0.9009695 -0.4338826</float_array>
          <technique_common>
            <accessor source="#ID51-mesh-normals-array" count="16" stride="3">
              <param name="X" type="float"/>
              <param name="Y" type="float"/>
              <param name="Z" type="float"/>
            </accessor>
          </technique_common>
        </source>
        <vertices id="ID51-mesh-vertices">
          <input semantic="POSITION" source="#ID51-mesh-positions"/>
        </vertices>
        <triangles material="rollers-material" count="32">
          <input semantic="VERTEX" source="#ID51-mesh-vertices" offset="0"/>
          <input semantic="NORMAL" source="#ID51-mesh-normals" offset="1"/>
          <p>0 0 1 1 2 1 1 1 0 0 3 0 4 2 3 0 0 0 3 0 4 2 5 2 2 1 6 3 7 3 6 3 2 1 1 1 8 4 4 2 9 4 4 2 8 4 5 2 7 3 10 5 11 5 10 5 7 3 6 3 12 6 9 4 13 6 9 4 12 6 8 4 11 5 14 7 15 7 14 7 11 5 10 5 16 8 17 6 18 8 17 6 16 8 19 6 15 7 20 9 21 9 20 9 15 7 14 7 22 10 18 8 23 10 18 8 22 10 16 8 24 9 25 11 26 11 25 11 24 9 27 9 22 10 28 12 29 12 28 12 22 10 23 10 26 11 30 13 31 13 30 13 26 11 25 11 29 12 32 14 33 14 32 14 29 12 28 12 34 15 31 13 30 13 31 13 34 15 35 15 33 14 35 15 34 15 35 15 33 14 32 14</p>
        </triangles>
      </mesh>
    </geometry>
    <geometry id="ID59-mesh" name="ID59">
      <mesh>
        <source id="ID59-mesh-positions">
          <float_array id="ID59-mesh-positions-array" count="90">185.0394 -90.55118 -39.37008 178.2203 -86.61417 -55.90551 185.0394 -90.55118 -55.90551 178.2203 -86.61417 -39.37008 178.2203 -78.74016 -39.37008 178.2203 -86.61417 -55.90551 178.2203 -86.61417 -39.37008 178.2203 -78.74016 -55.90551 185.0394 -74.80315 -55.90551 178.2203 -86.61417 -55.90551 178.2203 -78.74016 -55.90551 185.0394 -90.55118 -55.90551 191.8585 -78.74016 -55.90551 191.8585 -86.61417 -55.90551 191.8585 -86.61417 -39.37008 185.0394 -90.55118 -55.90551 191.8585 -86.61417 -55.90551 185.0394 -90.55118 -39.37008 178.2203 -78.74016 -39.37008 185.0394 -74.80315 -55.90551 178.2203 -78.74016 -55.90551 185.0394 -74.80315 -39.37008 185.0394 -74.80315 -39.37008 191.8585 -78.74016 -55.90551 185.0394 -74.80315 -55.90551 191.8585 -78.74016 -39.37008 191.8585 -78.74016 -55.90551 191.8585 -86.61417 -39.37008 191.8585 -86.61417 -55.90551 191.8585 -78.74016 -39.37008</float_array>
          <technique_common>
            <accessor source="#ID59-mesh-positions-array" count="30" stride="3">
              <param name="X" type="float"/>
              <param name="Y" type="float"/>
              <param name="Z" type="float"/>
            </accessor>
          </technique_common>
        </source>
        <source id="ID59-mesh-normals">
          <float_array id="ID59-mesh-normals-array" count="33">-0.5 -0.8660254 0 -0.4999983 -0.8660264 0 -1 0 0 0 0 -1 0.5 -0.8660254 0 0.5000016 -0.8660245 0 -0.4999983 0.8660264 0 -0.5 0.8660254 0 0.5000016 0.8660245 0 0.5 0.8660254 0 1 0 0</float_array>
          <technique_common>
            <accessor source="#ID59-mesh-normals-array" count="11" stride="3">
              <param name="X" type="float"/>
              <param name="Y" type="float"/>
              <param name="Z" type="float"/>
            </accessor>
          </technique_common>
        </source>
        <vertices id="ID59-mesh-vertices">
          <input semantic="POSITION" source="#ID59-mesh-positions"/>
        </vertices>
        <triangles material="lights-material" count="16">
          <input semantic="VERTEX" source="#ID59-mesh-vertices" offset="0"/>
          <input semantic="NORMAL" source="#ID59-mesh-normals" offset="1"/>
          <p>0 0 1 0 2 0 1 1 0 1 3 1 4 2 5 2 6 2 5 2 4 2 7 2 8 3 9 3 10 3 9 3 8 3 11 3 11 3 8 3 12 3 11 3 12 3 13 3 14 4 15 4 16 4 15 5 14 5 17 5 18 6 19 6 20 6 19 7 18 7 21 7 22 8 23 8 24 8 23 9 22 9 25 9 26 10 27 10 28 10 27 10 26 10 29 10</p>
        </triangles>
      </mesh>
    </geometry>
    <geometry id="ID67-mesh" name="ID67">
      <mesh>
        <source id="ID67-mesh-positions">
          <float_array id="ID67-mesh-positions-array" count="90">185.0394 74.80315 -39.37008 178.2203 78.74016 -55.90551 185.0394 74.80315 -55.90551 178.2203 78.74016 -39.37008 178.2203 86.61417 -39.37008 178.2203 78.74016 -55.90551 178.2203 78.74016 -39.37008 178.2203 86.61417 -55.90551 178.2203 86.61417 -55.90551 185.0394 74.80315 -55.90551 178.2203 78.74016 -55.90551 185.0394 90.55118 -55.90551 191.8585 78.74016 -55.90551 191.8585 86.61417 -55.90551 191.8585 78.74016 -39.37008 185.0394 74.80315 -55.90551 191.8585 78.74016 -55.90551 185.0394 74.80315 -39.37008 178.2203 86.61417 -39.37008 185.0394 90.55118 -55.90551 178.2203 86.61417 -55.90551 185.0394 90.55118 -39.37008 185.0394 90.55118 -39.37008 191.8585 86.61417 -55.90551 185.0394 90.55118 -55.90551 191.8585 86.61417 -39.37008 191.8585 86.61417 -55.90551 191.8585 78.74016 -39.37008 191.8585 78.74016 -55.90551 191.8585 86.61417 -39.37008</float_array>
          <technique_common>
            <accessor source="#ID67-mesh-positions-array" count="30" stride="3">
              <param name="X" type="float"/>
              <param name="Y" type="float"/>
              <param name="Z" type="float"/>
            </accessor>
          </technique_common>
        </source>
        <source id="ID67-mesh-normals">
          <float_array id="ID67-mesh-normals-array" count="33">-0.5 -0.8660254 0 -0.4999983 -0.8660264 0 -1 0 0 0 0 -1 0.5 -0.8660254 0 0.5000016 -0.8660245 0 -0.4999983 0.8660264 0 -0.5 0.8660254 0 0.5000016 0.8660245 0 0.5 0.8660254 0 1 0 0</float_array>
          <technique_common>
            <accessor source="#ID67-mesh-normals-array" count="11" stride="3">
              <param name="X" type="float"/>
              <param name="Y" type="float"/>
              <param name="Z" type="float"/>
            </accessor>
          </technique_common>
        </source>
        <vertices id="ID67-mesh-vertices">
          <input semantic="POSITION" source="#ID67-mesh-positions"/>
        </vertices>
        <triangles material="lights-material" count="16">
          <input semantic="VERTEX" source="#ID67-mesh-vertices" offset="0"/>
          <input semantic="NORMAL" source="#ID67-mesh-normals" offset="1"/>
          <p>0 0 1 0 2 0 1 1 0 1 3 1 4 2 5 2 6 2 5 2 4 2 7 2 8 3 9 3 10 3 9 3 8 3 11 3 9 3 11 3 12 3 12 3 11 3 13 3 14 4 15 4 16 4 15 5 14 5 17 5 18 6 19 6 20 6 19 7 18 7 21 7 22 8 23 8 24 8 23 9 22 9 25 9 26 10 27 10 28 10 27 10 26 10 29 10</p>
        </triangles>
      </mesh>
    </geometry>
    <geometry id="ID75-mesh" name="ID75">
      <mesh>
        <source id="ID75-mesh-positions">
          <float_array id="ID75-mesh-positions-array" count="444">-196.8504 98.4252 -39.37008 -191.8585 86.61417 -39.37008 -196.8504 -98.4252 -39.37008 -173.2283 98.4252 -39.37008 -185.0394 90.55118 -39.37008 -178.2203 86.61417 -39.37008 -178.2203 78.74016 -39.37008 -178.2203 -78.74016 -39.37008 -178.2203 -86.61417 -39.37008 -173.2283 -98.4252 -39.37008 -191.8585 -86.61417 -39.37008 -191.8585 -78.74016 -39.37008 -191.8585 78.74016 -39.37008 -185.0394 -90.55118 -39.37008 -185.0394 74.80315 -39.37008 -185.0394 -74.80315 -39.37008 -173.2283 -98.4252 -39.37008 -173.2283 -81.62256 -23.44309 -173.2283 -98.4252 0 -173.2283 -79.2192 -26.45681 -173.2283 -75.74624 -28.1293 -173.2283 98.4252 -39.37008 -173.2283 -82.48031 -19.68504 -173.2283 -73.8189 -28.1293 -173.2283 -71.89155 -28.1293 -173.2283 -51.13995 -28.1293 -173.2283 -68.41859 -26.45681 -173.2283 -66.01523 -23.44309 -173.2283 -54.6129 -26.45681 -173.2283 -65.15748 -19.68504 -173.2283 -57.01627 -23.44309 -173.2283 -57.87402 -19.68504 -173.2283 -49.2126 -28.1293 -173.2283 -47.28525 -28.1293 -173.2283 -26.53365 -28.1293 -173.2283 -43.81229 -26.45681 -173.2283 -41.40893 -23.44309 -173.2283 -30.0066 -26.45681 -173.2283 -40.55118 -19.68504 -173.2283 -32.40997 -23.44309 -173.2283 -33.26772 -19.68504 -173.2283 -24.6063 -28.1293 -173.2283 -22.67895 -28.1293 -173.2283 -19.20599 -26.45681 -173.2283 -1.927347 -28.1293 -173.2283 -16.80263 -23.44309 -173.2283 -5.400305 -26.45681 -173.2283 -15.94488 -19.68504 -173.2283 -7.803667 -23.44309 -173.2283 -8.661417 -19.68504 -173.2283 0 -28.1293 -173.2283 1.927347 -28.1293 -173.2283 5.400305 -26.45681 -173.2283 22.67895 -28.1293 -173.2283 7.803667 -23.44309 -173.2283 19.20599 -26.45681 -173.2283 8.661417 -19.68504 -173.2283 16.80263 -23.44309 -173.2283 15.94488 -19.68504 -173.2283 24.6063 -28.1293 -173.2283 26.53365 -28.1293 -173.2283 30.0066 -26.45681 -173.2283 47.28525 -28.1293 -173.2283 32.40997 -23.44309 -173.2283 43.81229 -26.45681 -173.2283 33.26772 -19.68504 -173.2283 41.40893 -23.44309 -173.2283 40.55118 -19.68504 -173.2283 49.2126 -28.1293 -173.2283 51.13995 -28.1293 -173.2283 54.6129 -26.45681 -173.2283 57.01627 -23.44309 -173.2283 71.89155 -28.1293 -173.2283 68.41859 -26.45681 -173.2283 57.87402 -19.68504 -173.2283 66.01523 -23.44309 -173.2283 65.15748 -19.68504 -173.2283 73.8189 -28.1293 -173.2283 75.74624 -28.1293 -173.2283 79.2192 -26.45681 -173.2283 81.62256 -23.44309 -173.2283 82.48031 -19.68504 -173.2283 -75.74624 -11.24078 -173.2283 98.4252 0 -173.2283 -79.2192 -12.91327 -173.2283 -81.62256 -15.92699 -173.2283 -73.8189 -11.24078 -173.2283 -71.89155 -11.24078 -173.2283 -51.13995 -11.24078 -173.2283 -68.41859 -12.91327 -173.2283 -66.01523 -15.92699 -173.2283 -54.6129 -12.91327 -173.2283 -57.01627 -15.92699 -173.2283 -49.2126 -11.24078 -173.2283 -47.28525 -11.24078 -173.2283 -26.53365 -11.24078 -173.2283 -43.81229 -12.91327 -173.2283 -41.40893 -15.92699 -173.2283 -30.0066 -12.91327 -173.2283 -32.40997 -15.92699 -173.2283 -24.6063 -11.24078 -173.2283 -22.67895 -11.24078 -173.2283 -19.20599 -12.91327 -173.2283 -1.927347 -11.24078 -173.2283 -16.80263 -15.92699 -173.2283 -5.400305 -12.91327 -173.2283 -7.803667 -15.92699 -173.2283 0 -11.24078 -173.2283 1.927347 -11.24078 -173.2283 5.400305 -12.91327 -173.2283 22.67895 -11.24078 -173.2283 7.803667 -15.92699 -173.2283 19.20599 -12.91327 -173.2283 16.80263 -15.92699 -173.2283 24.6063 -11.24078 -173.2283 26.53365 -11.24078 -173.2283 30.0066 -12.91327 -173.2283 47.28525 -11.24078 -173.2283 32.40997 -15.92699 -173.2283 43.81229 -12.91327 -173.2283 41.40893 -15.92699 -173.2283 49.2126 -11.24078 -173.2283 51.13995 -11.24078 -173.2283 54.6129 -12.91327 -173.2283 57.01627 -15.92699 -173.2283 71.89155 -11.24078 -173.2283 68.41859 -12.91327 -173.2283 66.01523 -15.92699 -173.2283 73.8189 -11.24078 -173.2283 75.74624 -11.24078 -173.2283 79.2192 -12.91327 -173.2283 81.62256 -15.92699 -173.2283 -98.4252 0 -196.8504 -98.4252 -39.37008 -173.2283 -98.4252 -39.37008 -196.8504 -98.4252 0 -196.8504 98.4252 0 -196.8504 -98.4252 -39.37008 -196.8504 -98.4252 0 -196.8504 98.4252 -39.37008 -196.8504 98.4252 0 -173.2283 98.4252 -39.37008 -196.8504 98.4252 -39.37008 -173.2283 98.4252 0 -196.8504 -98.4252 0 -173.2283 98.4252 0 -196.8504 98.4252 0 -173.2283 -98.4252 0</float_array>
          <technique_common>
            <accessor source="#ID75-mesh-positions-array" count="148" stride="3">
              <param name="X" type="float"/>
              <param name="Y" type="float"/>
              <param name="Z" type="float"/>
            </accessor>
          </technique_common>
        </source>
        <source id="ID75-mesh-normals">
          <float_array id="ID75-mesh-normals-array" count="105">-9.93798e-7 0 -1 0 0 -1 8.48522e-6 0 -1 -6.09168e-7 0 -1 3.10556e-6 0 -1 1.24222e-6 0 -1 -2.48445e-5 0 -1 9.9378e-7 0 -1 -3.10561e-6 0 -1 1.18309e-6 0 -1 -1 0 0 -6.09168e-7 0 -1 0 0 -1 1 7.38119e-7 0 1 -5.49144e-6 0 1 0 0 1 -2.83642e-6 0 1 2.99424e-6 0 1 -5.69523e-6 0 1 5.49144e-6 0 1 -6.35729e-6 0 1 2.52646e-7 0 1 -2.3131e-6 0 1 3.0452e-7 0 1 -9.03681e-7 0 1 3.83202e-7 0 1 -5.6153e-7 0 1 5.16709e-7 0 1 -2.84762e-6 0 1 7.92982e-7 0 1 -3.17864e-6 0 0 -1 0 0 1 0 0 0 1 0 0 1</float_array>
          <technique_common>
            <accessor source="#ID75-mesh-normals-array" count="35" stride="3">
              <param name="X" type="float"/>
              <param name="Y" type="float"/>
              <param name="Z" type="float"/>
            </accessor>
          </technique_common>
        </source>
        <vertices id="ID75-mesh-vertices">
          <input semantic="POSITION" source="#ID75-mesh-positions"/>
        </vertices>
        <triangles material="sides-material" count="154">
          <input semantic="VERTEX" source="#ID75-mesh-vertices" offset="0"/>
          <input semantic="NORMAL" source="#ID75-mesh-normals" offset="1"/>
          <p>0 0 1 0 2 0 1 1 0 1 3 1 1 2 3 2 4 2 4 3 3 3 5 3 5 4 3 4 6 4 6 5 3 5 7 5 7 6 3 6 8 6 8 7 3 7 9 7 2 1 10 1 9 1 10 8 2 8 11 8 11 9 2 9 1 9 11 10 1 10 12 10 9 2 10 2 13 2 9 11 13 11 8 11 14 1 11 1 12 1 11 1 14 1 15 1 15 12 14 12 6 12 15 1 6 1 7 1 16 13 17 13 18 13 17 14 16 14 19 14 19 15 16 15 20 15 20 15 16 15 21 15 18 16 17 16 22 16 20 15 21 15 23 15 23 15 21 15 24 15 24 15 21 15 25 15 24 15 25 15 26 15 26 15 25 15 27 15 27 15 25 15 28 15 27 15 28 15 29 15 29 15 28 15 30 15 29 15 30 15 31 15 25 15 21 15 32 15 32 15 21 15 33 15 33 15 21 15 34 15 33 15 34 15 35 15 35 15 34 15 36 15 36 15 34 15 37 15 36 15 37 15 38 15 38 15 37 15 39 15 38 15 39 15 40 15 34 15 21 15 41 15 41 15 21 15 42 15 42 15 21 15 43 15 43 15 21 15 44 15 43 15 44 15 45 15 45 15 44 15 46 15 45 15 46 15 47 15 47 15 46 15 48 15 47 15 48 15 49 15 44 15 21 15 50 15 50 15 21 15 51 15 51 15 21 15 52 15 52 15 21 15 53 15 52 15 53 15 54 15 54 15 53 15 55 15 54 15 55 15 56 15 56 15 55 15 57 15 56 15 57 15 58 15 53 15 21 15 59 15 59 15 21 15 60 15 60 15 21 15 61 15 61 15 21 15 62 15 61 15 62 15 63 15 63 15 62 15 64 15 63 15 64 15 65 15 65 15 64 15 66 15 65 15 66 15 67 15 62 15 21 15 68 15 68 15 21 15 69 15 69 15 21 15 70 15 70 17 21 17 71 17 71 18 21 18 72 18 71 15 72 15 73 15 71 15 73 15 74 15 74 15 73 15 75 15 74 15 75 15 76 15 72 15 21 15 77 15 77 15 21 15 78 15 78 15 21 15 79 15 79 19 21 19 80 19 80 20 21 20 81 20 18 15 82 15 83 15 82 15 18 15 84 15 84 15 18 15 85 15 85 15 18 15 22 15 83 15 82 15 86 15 83 15 86 15 87 15 83 15 87 15 88 15 88 15 87 15 89 15 88 15 89 15 90 15 88 15 90 15 91 15 91 15 90 15 29 15 91 15 29 15 92 15 92 15 29 15 31 15 83 15 88 15 93 15 83 15 93 15 94 15 83 15 94 15 95 15 95 15 94 15 96 15 95 15 96 15 97 15 95 15 97 15 98 15 98 15 97 15 38 15 98 15 38 15 99 15 99 15 38 15 40 15 83 15 95 15 100 15 83 15 100 15 101 15 83 21 101 21 102 21 83 22 102 22 103 22 103 15 102 15 104 15 103 15 104 15 105 15 105 15 104 15 47 15 105 15 47 15 106 15 106 15 47 15 49 15 83 15 103 15 107 15 83 15 107 15 108 15 83 23 108 23 109 23 83 24 109 24 110 24 110 15 109 15 111 15 110 15 111 15 112 15 112 15 111 15 56 15 112 15 56 15 113 15 113 15 56 15 58 15 83 15 110 15 114 15 83 15 114 15 115 15 83 25 115 25 116 25 83 26 116 26 117 26 117 15 116 15 118 15 117 15 118 15 119 15 119 15 118 15 65 15 119 15 65 15 120 15 120 15 65 15 67 15 83 15 117 15 121 15 83 15 121 15 122 15 83 27 122 27 123 27 83 15 123 15 124 15 83 28 124 28 125 28 125 15 124 15 126 15 126 15 124 15 74 15 126 15 74 15 127 15 127 15 74 15 76 15 83 15 125 15 128 15 83 15 128 15 129 15 83 29 129 29 130 29 83 15 130 15 131 15 83 30 131 30 81 30 83 15 81 15 21 15 132 31 133 31 134 31 133 31 132 31 135 31 136 10 137 10 138 10 137 10 136 10 139 10 140 32 141 32 142 32 141 32 140 32 143 32 144 33 145 33 146 33 145 34 144 34 147 34</p>
        </triangles>
      </mesh>
    </geometry>
    <geometry id="ID83-mesh" name="ID83">
      <mesh>
        <source id="ID83-mesh-positions">
          <float_array id="ID83-mesh-positions-array" count="96">-173.2283 73.8189 -28.1293 173.2283 71.89155 -28.1293 -173.2283 71.89155 -28.1293 173.2283 73.8189 -28.1293 -173.2283 75.74624 -28.1293 173.2283 75.74624 -28.1293 173.2283 68.41859 -26.45681 -173.2283 68.41859 -26.45681 -173.2283 79.2192 -26.45681 173.2283 79.2192 -26.45681 173.2283 66.01523 -23.44309 -173.2283 66.01523 -23.44309 -173.2283 81.62256 -23.44309 173.2283 81.62256 -23.44309 173.2283 65.15748 -19.68504 -173.2283 65.15748 -19.68504 -173.2283 82.48031 -19.68504 173.2283 82.48031 -19.68504 173.2283 66.01523 -15.92699 -173.2283 66.01523 -15.92699 -173.2283 81.62256 -15.92699 173.2283 81.62256 -15.92699 173.2283 68.41859 -12.91327 -173.2283 68.41859 -12.91327 -173.2283 79.2192 -12.91327 173.2283 79.2192 -12.91327 -173.2283 71.89155 -11.24078 173.2283 71.89155 -11.24078 173.2283 75.74624 -11.24078 -173.2283 75.74624 -11.24078 -173.2283 73.8189 -11.24078 173.2283 73.8189 -11.24078</float_array>
          <technique_common>
            <accessor source="#ID83-mesh-positions-array" count="32" stride="3">
              <param name="X" type="float"/>
              <param name="Y" type="float"/>
              <param name="Z" type="float"/>
            </accessor>
          </technique_common>
        </source>
        <source id="ID83-mesh-normals">
          <float_array id="ID83-mesh-normals-array" count="48">0 0 -1 0 -0.222514 -0.9749296 0 0.222514 -0.9749296 0 -0.6234773 -0.7818415 0 0.6234773 -0.7818415 0 -0.9009695 -0.4338826 0 0.9009695 -0.4338826 0 -1 0 0 1 0 0 -0.9009695 0.4338826 0 0.9009695 0.4338826 0 -0.6234773 0.7818415 0 0.6234773 0.7818415 0 -0.222514 0.9749296 0 0.222514 0.9749296 0 0 1</float_array>
          <technique_common>
            <accessor source="#ID83-mesh-normals-array" count="16" stride="3">
              <param name="X" type="float"/>
              <param name="Y" type="float"/>
              <param name="Z" type="float"/>
            </accessor>
          </technique_common>
        </source>
        <vertices id="ID83-mesh-vertices">
          <input semantic="POSITION" source="#ID83-mesh-positions"/>
        </vertices>
        <triangles material="rollers-material" count="32">
          <input semantic="VERTEX" source="#ID83-mesh-vertices" offset="0"/>
          <input semantic="NORMAL" source="#ID83-mesh-normals" offset="1"/>
          <p>0 0 1 1 2 1 1 1 0 0 3 0 4 2 3 0 0 0 3 0 4 2 5 2 2 1 6 3 7 3 6 3 2 1 1 1 8 4 5 2 4 2 5 2 8 4 9 4 10 5 7 3 6 3 7 3 10 5 11 5 12 6 9 4 8 4 9 4 12 6 13 6 14 7 11 5 10 5 11 5 14 7 15 7 16 8 13 6 12 6 13 6 16 8 17 8 18 9 15 7 14 7 15 7 18 9 19 9 20 10 17 8 16 8 17 8 20 10 21 10 22 11 19 9 18 9 19 9 22 11 23 11 24 12 21 10 20 10 21 10 24 12 25 12 22 11 26 13 23 11 26 13 22 11 27 13 28 14 24 12 29 14 24 12 28 14 25 12 27 13 30 15 26 13 30 15 27 13 31 15 31 15 29 14 30 15 29 14 31 15 28 14</p>
        </triangles>
      </mesh>
    </geometry>
    <geometry id="ID91-mesh" name="ID91">
      <mesh>
        <source id="ID91-mesh-positions">
          <float_array id="ID91-mesh-positions-array" count="108">-173.2283 49.2126 -28.1293 173.2283 47.28525 -28.1293 -173.2283 47.28525 -28.1293 173.2283 49.2126 -28.1293 -173.2283 51.13995 -28.1293 173.2283 49.2126 -28.1293 -173.2283 49.2126 -28.1293 173.2283 51.13995 -28.1293 173.2283 43.81229 -26.45681 -173.2283 43.81229 -26.45681 -173.2283 54.6129 -26.45681 173.2283 54.6129 -26.45681 173.2283 41.40893 -23.44309 -173.2283 41.40893 -23.44309 -173.2283 57.01627 -23.44309 173.2283 57.01627 -23.44309 173.2283 40.55118 -19.68504 -173.2283 40.55118 -19.68504 -173.2283 57.87402 -19.68504 173.2283 57.87402 -19.68504 173.2283 41.40893 -15.92699 -173.2283 41.40893 -15.92699 -173.2283 57.01627 -15.92699 173.2283 57.01627 -15.92699 173.2283 43.81229 -12.91327 -173.2283 43.81229 -12.91327 -173.2283 54.6129 -12.91327 173.2283 54.6129 -12.91327 -173.2283 47.28525 -11.24078 173.2283 47.28525 -11.24078 173.2283 51.13995 -11.24078 -173.2283 51.13995 -11.24078 -173.2283 49.2126 -11.24078 173.2283 49.2126 -11.24078 173.2283 49.2126 -11.24078 -173.2283 49.2126 -11.24078</float_array>
          <technique_common>
            <accessor source="#ID91-mesh-positions-array" count="36" stride="3">
              <param name="X" type="float"/>
              <param name="Y" type="float"/>
              <param name="Z" type="float"/>
            </accessor>
          </technique_common>
        </source>
        <source id="ID91-mesh-normals">
          <float_array id="ID91-mesh-normals-array" count="48">0 0 -1 0 -0.222514 -0.9749296 0 0.222514 -0.9749296 0 -0.6234773 -0.7818415 0 0.6234773 -0.7818415 0 -0.9009695 -0.4338826 0 0.9009695 -0.4338826 0 -1 0 0 1 0 0 -0.9009695 0.4338826 0 0.9009695 0.4338826 0 -0.6234773 0.7818415 0 0.6234773 0.7818415 0 -0.222514 0.9749296 0 0.222514 0.9749296 0 0 1</float_array>
          <technique_common>
            <accessor source="#ID91-mesh-normals-array" count="16" stride="3">
              <param name="X" type="float"/>
              <param name="Y" type="float"/>
              <param name="Z" type="float"/>
            </accessor>
          </technique_common>
        </source>
        <vertices id="ID91-mesh-vertices">
          <input semantic="POSITION" source="#ID91-mesh-positions"/>
        </vertices>
        <triangles material="rollers-material" count="32">
          <input semantic="VERTEX" source="#ID91-mesh-vertices" offset="0"/>
          <input semantic="NORMAL" source="#ID91-mesh-normals" offset="1"/>
          <p>0 0 1 1 2 1 1 1 0 0 3 0 4 2 5 0 6 0 5 0 4 2 7 2 2 1 8 3 9 3 8 3 2 1 1 1 10 4 7 2 4 2 7 2 10 4 11 4 12 5 9 3 8 3 9 3 12 5 13 5 14 6 11 4 10 4 11 4 14 6 15 6 16 7 13 5 12 5 13 5 16 7 17 7 18 8 15 6 14 6 15 6 18 8 19 8 20 9 17 7 16 7 17 7 20 9 21 9 22 10 19 8 18 8 19 8 22 10 23 10 24 11 21 9 20 9 21 9 24 11 25 11 26 12 23 10 22 10 23 10 26 12 27 12 24 11 28 13 25 11 28 13 24 11 29 13 30 14 26 12 31 14 26 12 30 14 27 12 29 13 32 15 28 13 32 15 29 13 33 15 34 15 31 14 35 15 31 14 34 15 30 14</p>
        </triangles>
      </mesh>
    </geometry>
    <geometry id="ID99-mesh" name="ID99">
      <mesh>
        <source id="ID99-mesh-positions">
          <float_array id="ID99-mesh-positions-array" count="108">173.2283 15.94488 -19.68504 -173.2283 16.80263 -23.44309 173.2283 16.80263 -23.44309 -173.2283 15.94488 -19.68504 -173.2283 19.20599 -26.45681 173.2283 19.20599 -26.45681 173.2283 16.80263 -15.92699 -173.2283 16.80263 -15.92699 -173.2283 22.67895 -28.1293 173.2283 22.67895 -28.1293 173.2283 19.20599 -12.91327 -173.2283 19.20599 -12.91327 -173.2283 24.6063 -28.1293 173.2283 24.6063 -28.1293 -173.2283 22.67895 -11.24078 173.2283 22.67895 -11.24078 -173.2283 26.53365 -28.1293 173.2283 24.6063 -28.1293 -173.2283 24.6063 -28.1293 173.2283 26.53365 -28.1293 -173.2283 24.6063 -11.24078 173.2283 24.6063 -11.24078 -173.2283 30.0066 -26.45681 173.2283 30.0066 -26.45681 173.2283 24.6063 -11.24078 -173.2283 26.53365 -11.24078 -173.2283 24.6063 -11.24078 173.2283 26.53365 -11.24078 -173.2283 32.40997 -23.44309 173.2283 32.40997 -23.44309 -173.2283 30.0066 -12.91327 173.2283 30.0066 -12.91327 -173.2283 33.26772 -19.68504 173.2283 33.26772 -19.68504 173.2283 32.40997 -15.92699 -173.2283 32.40997 -15.92699</float_array>
          <technique_common>
            <accessor source="#ID99-mesh-positions-array" count="36" stride="3">
              <param name="X" type="float"/>
              <param name="Y" type="float"/>
              <param name="Z" type="float"/>
            </accessor>
          </technique_common>
        </source>
        <source id="ID99-mesh-normals">
          <float_array id="ID99-mesh-normals-array" count="48">0 -1 0 0 -0.9009695 -0.4338826 0 -0.6234773 -0.7818415 0 -0.9009695 0.4338826 0 -0.222514 -0.9749296 0 -0.6234773 0.7818415 0 0 -1 0 -0.222514 0.9749296 0 0.222514 -0.9749296 0 0 1 0 0.6234773 -0.7818415 0 0.222514 0.9749296 0 0.9009695 -0.4338826 0 0.6234773 0.7818415 0 1 0 0 0.9009695 0.4338826</float_array>
          <technique_common>
            <accessor source="#ID99-mesh-normals-array" count="16" stride="3">
              <param name="X" type="float"/>
              <param name="Y" type="float"/>
              <param name="Z" type="float"/>
            </accessor>
          </technique_common>
        </source>
        <vertices id="ID99-mesh-vertices">
          <input semantic="POSITION" source="#ID99-mesh-positions"/>
        </vertices>
        <triangles material="rollers-material" count="32">
          <input semantic="VERTEX" source="#ID99-mesh-vertices" offset="0"/>
          <input semantic="NORMAL" source="#ID99-mesh-normals" offset="1"/>
          <p>0 0 1 1 2 1 1 1 0 0 3 0 2 1 4 2 5 2 4 2 2 1 1 1 6 3 3 0 0 0 3 0 6 3 7 3 8 4 5 2 4 2 5 2 8 4 9 4 10 5 7 3 6 3 7 3 10 5 11 5 12 6 9 4 8 4 9 4 12 6 13 6 10 5 14 7 11 5 14 7 10 5 15 7 16 8 17 6 18 6 17 6 16 8 19 8 15 7 20 9 14 7 20 9 15 7 21 9 22 10 19 8 16 8 19 8 22 10 23 10 24 9 25 11 26 9 25 11 24 9 27 11 28 12 23 10 22 10 23 10 28 12 29 12 27 11 30 13 25 11 30 13 27 11 31 13 32 14 29 12 28 12 29 12 32 14 33 14 30 13 34 15 35 15 34 15 30 13 31 13 35 15 33 14 32 14 33 14 35 15 34 15</p>
        </triangles>
      </mesh>
    </geometry>
    <geometry id="ID107-mesh" name="ID107">
      <mesh>
        <source id="ID107-mesh-positions">
          <float_array id="ID107-mesh-positions-array" count="108">173.2283 -8.661417 -19.68504 -173.2283 -7.803667 -23.44309 173.2283 -7.803667 -23.44309 -173.2283 -8.661417 -19.68504 -173.2283 -5.400305 -26.45681 173.2283 -5.400305 -26.45681 173.2283 -7.803667 -15.92699 -173.2283 -7.803667 -15.92699 -173.2283 -1.927347 -28.1293 173.2283 -1.927347 -28.1293 173.2283 -5.400305 -12.91327 -173.2283 -5.400305 -12.91327 -173.2283 0 -28.1293 173.2283 0 -28.1293 -173.2283 -1.927347 -11.24078 173.2283 -1.927347 -11.24078 -173.2283 1.927347 -28.1293 173.2283 0 -28.1293 -173.2283 0 -28.1293 173.2283 1.927347 -28.1293 -173.2283 0 -11.24078 173.2283 0 -11.24078 -173.2283 5.400305 -26.45681 173.2283 5.400305 -26.45681 173.2283 0 -11.24078 -173.2283 1.927347 -11.24078 -173.2283 0 -11.24078 173.2283 1.927347 -11.24078 -173.2283 7.803667 -23.44309 173.2283 7.803667 -23.44309 -173.2283 5.400305 -12.91327 173.2283 5.400305 -12.91327 -173.2283 8.661417 -19.68504 173.2283 8.661417 -19.68504 173.2283 7.803667 -15.92699 -173.2283 7.803667 -15.92699</float_array>
          <technique_common>
            <accessor source="#ID107-mesh-positions-array" count="36" stride="3">
              <param name="X" type="float"/>
              <param name="Y" type="float"/>
              <param name="Z" type="float"/>
            </accessor>
          </technique_common>
        </source>
        <source id="ID107-mesh-normals">
          <float_array id="ID107-mesh-normals-array" count="48">0 -1 0 0 -0.9009695 -0.4338826 0 -0.6234773 -0.7818415 0 -0.9009695 0.4338826 0 -0.222514 -0.9749296 0 -0.6234773 0.7818415 0 0 -1 0 -0.222514 0.9749296 0 0.222514 -0.9749296 0 0 1 0 0.6234773 -0.7818415 0 0.222514 0.9749296 0 0.9009695 -0.4338826 0 0.6234773 0.7818415 0 1 0 0 0.9009695 0.4338826</float_array>
          <technique_common>
            <accessor source="#ID107-mesh-normals-array" count="16" stride="3">
              <param name="X" type="float"/>
              <param name="Y" type="float"/>
              <param name="Z" type="float"/>
            </accessor>
          </technique_common>
        </source>
        <vertices id="ID107-mesh-vertices">
          <input semantic="POSITION" source="#ID107-mesh-positions"/>
        </vertices>
        <triangles material="rollers-material" count="32">
          <input semantic="VERTEX" source="#ID107-mesh-vertices" offset="0"/>
          <input semantic="NORMAL" source="#ID107-mesh-normals" offset="1"/>
          <p>0 0 1 1 2 1 1 1 0 0 3 0 2 1 4 2 5 2 4 2 2 1 1 1 6 3 3 0 0 0 3 0 6 3 7 3 8 4 5 2 4 2 5 2 8 4 9 4 10 5 7 3 6 3 7 3 10 5 11 5 12 6 9 4 8 4 9 4 12 6 13 6 10 5 14 7 11 5 14 7 10 5 15 7 16 8 17 6 18 6 17 6 16 8 19 8 15 7 20 9 14 7 20 9 15 7 21 9 22 10 19 8 16 8 19 8 22 10 23 10 24 9 25 11 26 9 25 11 24 9 27 11 28 12 23 10 22 10 23 10 28 12 29 12 27 11 30 13 25 11 30 13 27 11 31 13 32 14 29 12 28 12 29 12 32 14 33 14 30 13 34 15 35 15 34 15 30 13 31 13 35 15 33 14 32 14 33 14 35 15 34 15</p>
        </triangles>
      </mesh>
    </geometry>
  </library_geometries>
  <library_controllers/>
  <library_visual_scenes>
    <visual_scene id="Scene" name="Scene">
      <node id="Roller_deck_agv_part_2" name="Roller_deck_agv_part_2" type="NODE">
        <translate sid="location">0 0 0</translate>
        <rotate sid="rotationZ">0 0 1 0</rotate>
        <rotate sid="rotationY">0 1 0 0</rotate>
        <rotate sid="rotationX">1 0 0 0</rotate>
        <scale sid="scale">1 1 1</scale>
        <node id="instance_0" name="instance_0" type="NODE">
          <translate sid="location">0 0 0</translate>
          <rotate sid="rotationZ">0 0 1 0</rotate>
          <rotate sid="rotationY">0 1 0 0</rotate>
          <rotate sid="rotationX">1 0 0 -180</rotate>
          <scale sid="scale">1 1 1</scale>
          <instance_geometry url="#ID5-mesh" name="instance_0">
            <bind_material>
              <technique_common>
                <instance_material symbol="lights-material" target="#lights-material"/>
              </technique_common>
            </bind_material>
          </instance_geometry>
        </node>
        <node id="instance_0_001" name="instance_0_001" type="NODE">
          <translate sid="location">0 0 0</translate>
          <rotate sid="rotationZ">0 0 1 0</rotate>
          <rotate sid="rotationY">0 1 0 0</rotate>
          <rotate sid="rotationX">1 0 0 -180</rotate>
          <scale sid="scale">1 1 1</scale>
          <instance_geometry url="#ID15-mesh" name="instance_0_001">
            <bind_material>
              <technique_common>
                <instance_material symbol="lights-material" target="#lights-material"/>
              </technique_common>
            </bind_material>
          </instance_geometry>
        </node>
        <node id="instance_0_002" name="instance_0_002" type="NODE">
          <translate sid="location">0 0 0</translate>
          <rotate sid="rotationZ">0 0 1 0</rotate>
          <rotate sid="rotationY">0 1 0 0</rotate>
          <rotate sid="rotationX">1 0 0 -180</rotate>
          <scale sid="scale">1 1 1</scale>
          <instance_geometry url="#ID23-mesh" name="instance_0_002">
            <bind_material>
              <technique_common>
                <instance_material symbol="rollers-material" target="#rollers-material"/>
              </technique_common>
            </bind_material>
          </instance_geometry>
        </node>
        <node id="instance_0_003" name="instance_0_003" type="NODE">
          <translate sid="location">0 0 0</translate>
          <rotate sid="rotationZ">0 0 1 0</rotate>
          <rotate sid="rotationY">0 1 0 0</rotate>
          <rotate sid="rotationX">1 0 0 -180</rotate>
          <scale sid="scale">1 1 1</scale>
          <instance_geometry url="#ID33-mesh" name="instance_0_003">
            <bind_material>
              <technique_common>
                <instance_material symbol="sides-material" target="#sides-material"/>
              </technique_common>
            </bind_material>
          </instance_geometry>
        </node>
        <node id="instance_0_004" name="instance_0_004" type="NODE">
          <translate sid="location">0 0 0</translate>
          <rotate sid="rotationZ">0 0 1 0</rotate>
          <rotate sid="rotationY">0 1 0 0</rotate>
          <rotate sid="rotationX">1 0 0 -180</rotate>
          <scale sid="scale">1 1 1</scale>
          <instance_geometry url="#ID43-mesh" name="instance_0_004">
            <bind_material>
              <technique_common>
                <instance_material symbol="rollers-material" target="#rollers-material"/>
              </technique_common>
            </bind_material>
          </instance_geometry>
        </node>
        <node id="instance_0_005" name="instance_0_005" type="NODE">
          <translate sid="location">0 0 0</translate>
          <rotate sid="rotationZ">0 0 1 0</rotate>
          <rotate sid="rotationY">0 1 0 0</rotate>
          <rotate sid="rotationX">1 0 0 -180</rotate>
          <scale sid="scale">1 1 1</scale>
          <instance_geometry url="#ID51-mesh" name="instance_0_005">
            <bind_material>
              <technique_common>
                <instance_material symbol="rollers-material" target="#rollers-material"/>
              </technique_common>
            </bind_material>
          </instance_geometry>
        </node>
        <node id="instance_0_006" name="instance_0_006" type="NODE">
          <translate sid="location">0 0 0</translate>
          <rotate sid="rotationZ">0 0 1 0</rotate>
          <rotate sid="rotationY">0 1 0 0</rotate>
          <rotate sid="rotationX">1 0 0 -180</rotate>
          <scale sid="scale">1 1 1</scale>
          <instance_geometry url="#ID59-mesh" name="instance_0_006">
            <bind_material>
              <technique_common>
                <instance_material symbol="lights-material" target="#lights-material"/>
              </technique_common>
            </bind_material>
          </instance_geometry>
        </node>
        <node id="instance_0_007" name="instance_0_007" type="NODE">
          <translate sid="location">0 0 0</translate>
          <rotate sid="rotationZ">0 0 1 0</rotate>
          <rotate sid="rotationY">0 1 0 0</rotate>
          <rotate sid="rotationX">1 0 0 -180</rotate>
          <scale sid="scale">1 1 1</scale>
          <instance_geometry url="#ID67-mesh" name="instance_0_007">
            <bind_material>
              <technique_common>
                <instance_material symbol="lights-material" target="#lights-material"/>
              </technique_common>
            </bind_material>
          </instance_geometry>
        </node>
        <node id="instance_0_008" name="instance_0_008" type="NODE">
          <translate sid="location">0 0 0</translate>
          <rotate sid="rotationZ">0 0 1 0</rotate>
          <rotate sid="rotationY">0 1 0 0</rotate>
          <rotate sid="rotationX">1 0 0 -180</rotate>
          <scale sid="scale">1 1 1</scale>
          <instance_geometry url="#ID75-mesh" name="instance_0_008">
            <bind_material>
              <technique_common>
                <instance_material symbol="sides-material" target="#sides-material"/>
              </technique_common>
            </bind_material>
          </instance_geometry>
        </node>
        <node id="instance_0_009" name="instance_0_009" type="NODE">
          <translate sid="location">0 0 0</translate>
          <rotate sid="rotationZ">0 0 1 0</rotate>
          <rotate sid="rotationY">0 1 0 0</rotate>
          <rotate sid="rotationX">1 0 0 -180</rotate>
          <scale sid="scale">1 1 1</scale>
          <instance_geometry url="#ID83-mesh" name="instance_0_009">
            <bind_material>
              <technique_common>
                <instance_material symbol="rollers-material" target="#rollers-material"/>
              </technique_common>
            </bind_material>
          </instance_geometry>
        </node>
        <node id="instance_0_010" name="instance_0_010" type="NODE">
          <translate sid="location">0 0 0</translate>
          <rotate sid="rotationZ">0 0 1 0</rotate>
          <rotate sid="rotationY">0 1 0 0</rotate>
          <rotate sid="rotationX">1 0 0 -180</rotate>
          <scale sid="scale">1 1 1</scale>
          <instance_geometry url="#ID91-mesh" name="instance_0_010">
            <bind_material>
              <technique_common>
                <instance_material symbol="rollers-material" target="#rollers-material"/>
              </technique_common>
            </bind_material>
          </instance_geometry>
        </node>
        <node id="instance_0_011" name="instance_0_011" type="NODE">
          <translate sid="location">0 0 0</translate>
          <rotate sid="rotationZ">0 0 1 0</rotate>
          <rotate sid="rotationY">0 1 0 0</rotate>
          <rotate sid="rotationX">1 0 0 -180</rotate>
          <scale sid="scale">1 1 1</scale>
          <instance_geometry url="#ID99-mesh" name="instance_0_011">
            <bind_material>
              <technique_common>
                <instance_material symbol="rollers-material" target="#rollers-material"/>
              </technique_common>
            </bind_material>
          </instance_geometry>
        </node>
        <node id="instance_0_012" name="instance_0_012" type="NODE">
          <translate sid="location">0 0 0</translate>
          <rotate sid="rotationZ">0 0 1 0</rotate>
          <rotate sid="rotationY">0 1 0 0</rotate>
          <rotate sid="rotationX">1 0 0 -180</rotate>
          <scale sid="scale">1 1 1</scale>
          <instance_geometry url="#ID107-mesh" name="instance_0_012">
            <bind_material>
              <technique_common>
                <instance_material symbol="rollers-material" target="#rollers-material"/>
              </technique_common>
            </bind_material>
          </instance_geometry>
        </node>
      </node>
    </visual_scene>
  </library_visual_scenes>
  <scene>
    <instance_visual_scene url="#Scene"/>
  </scene>
</COLLADA>